<?xml version="1.0" encoding="utf-8"?>
<!-- Generator: Adobe Illustrator 15.0.0, SVG Export Plug-In  -->
<!DOCTYPE svg PUBLIC "-//W3C//DTD SVG 1.1//EN" "http://www.w3.org/Graphics/SVG/1.1/DTD/svg11.dtd" [
	<!ENTITY ns_flows "http://ns.adobe.com/Flows/1.0/">
]>
<svg version="1.1"
	 xmlns="http://www.w3.org/2000/svg" xmlns:xlink="http://www.w3.org/1999/xlink" xmlns:a="http://ns.adobe.com/AdobeSVGViewerExtensions/3.0/"
	 x="0px" y="0px" width="60px" height="58px" viewBox="0 0 60 58" overflow="visible" enable-background="new 0 0 60 58"
	 xml:space="preserve">
<defs>
</defs>
<circle fill="#F2F2F2" cx="28.823" cy="28.823" r="26.943"/>
<path fill="#B3B3B3" d="M28.823,57.646C12.93,57.646,0,44.717,0,28.823C0,12.929,12.93,0,28.823,0
	c15.893,0,28.824,12.93,28.824,28.823C57.647,44.716,44.715,57.646,28.823,57.646z M28.823,3.762
	c-13.819,0-25.061,11.242-25.061,25.061c0,13.819,11.242,25.062,25.061,25.062c13.82,0,25.062-11.242,25.062-25.062
	C53.885,15.003,42.643,3.762,28.823,3.762z"/>
<rect x="17.414" y="16.812" fill="#B3B3B3" width="23.198" height="23.198"/>
<path opacity="0.25" fill="#FFFFFF" enable-background="new    " d="M2.636,35.185c-0.493-2.039-0.755-4.169-0.755-6.361
	c0-14.88,12.062-26.942,26.942-26.942c8.92,0,16.825,4.333,21.729,11.01"/>
</svg>
