<?xml version="1.0" encoding="utf-8"?>
<!-- Generator: Adobe Illustrator 15.0.0, SVG Export Plug-In . SVG Version: 6.00 Build 0)  -->
<!DOCTYPE svg PUBLIC "-//W3C//DTD SVG 1.1//EN" "http://www.w3.org/Graphics/SVG/1.1/DTD/svg11.dtd">
<svg version="1.1" id="Ebene_1" xmlns="http://www.w3.org/2000/svg" xmlns:xlink="http://www.w3.org/1999/xlink" x="0px" y="0px"
	 width="640px" height="157px" viewBox="0 0 640 157" enable-background="new 0 0 640 157" xml:space="preserve">
<g>
	
		<image overflow="visible" opacity="0.26" enable-background="new    " width="640" height="109" xlink:href="BA15C27.png"  transform="matrix(1 0 0 1 0 53)">
	</image>
	<g>
		
			<linearGradient id="SVGID_1_" gradientUnits="userSpaceOnUse" x1="209.916" y1="-93.5" x2="817.916" y2="-93.5" gradientTransform="matrix(1 0 0 -1 -196 12)">
			<stop  offset="0.0859" style="stop-color:#AC272D"/>
			<stop  offset="0.4294" style="stop-color:#F15A24"/>
			<stop  offset="0.4951" style="stop-color:#BA5D28"/>
			<stop  offset="0.5629" style="stop-color:#89602C"/>
			<stop  offset="0.6325" style="stop-color:#5F6230"/>
			<stop  offset="0.7028" style="stop-color:#3D6432"/>
			<stop  offset="0.774" style="stop-color:#226634"/>
			<stop  offset="0.8463" style="stop-color:#0F6736"/>
			<stop  offset="0.9207" style="stop-color:#046837"/>
			<stop  offset="1" style="stop-color:#006837"/>
		</linearGradient>
		<path fill="url(#SVGID_1_)" d="M621.916,136c0,4.418-4.172,8-9.318,8H23.234c-5.146,0-9.318-3.582-9.318-8V75
			c0-4.418,4.172-8,9.318-8h589.363c5.146,0,9.318,3.582,9.318,8L621.916,136L621.916,136z"/>
		<path fill="none" stroke="#E6E6E6" stroke-miterlimit="10" d="M621.916,136c0,4.418-4.172,8-9.318,8H23.234
			c-5.146,0-9.318-3.582-9.318-8V75c0-4.418,4.172-8,9.318-8h589.363c5.146,0,9.318,3.582,9.318,8L621.916,136L621.916,136z"/>
	</g>
</g>
<line fill="none" stroke="#FFFFFF" stroke-width="2" stroke-miterlimit="10" x1="70" y1="105" x2="70" y2="144"/>
<line fill="none" stroke="#FFFFFF" stroke-width="2" stroke-miterlimit="10" x1="133" y1="105" x2="133" y2="144"/>
<line fill="none" stroke="#FFFFFF" stroke-width="2" stroke-miterlimit="10" x1="197" y1="105" x2="197" y2="144"/>
<line fill="none" stroke="#FFFFFF" stroke-width="2" stroke-miterlimit="10" x1="260" y1="105" x2="260" y2="144"/>
<line fill="none" stroke="#FFFFFF" stroke-width="2" stroke-miterlimit="10" x1="324" y1="105" x2="324" y2="144"/>
<line fill="none" stroke="#FFFFFF" stroke-width="2" stroke-miterlimit="10" x1="387" y1="105" x2="387" y2="144"/>
<line fill="none" stroke="#FFFFFF" stroke-width="2" stroke-miterlimit="10" x1="451" y1="105" x2="451" y2="144"/>
<line fill="none" stroke="#FFFFFF" stroke-width="2" stroke-miterlimit="10" x1="514" y1="105" x2="514" y2="144"/>
<line fill="none" stroke="#FFFFFF" stroke-width="2" stroke-miterlimit="10" x1="578" y1="105" x2="578" y2="144"/>
<line fill="none" stroke="#FFFFFF" stroke-miterlimit="10" x1="522.5" y1="117" x2="522.5" y2="143"/>
<line fill="none" stroke="#FFFFFF" stroke-miterlimit="10" x1="532.5" y1="117" x2="532.5" y2="143"/>
<line fill="none" stroke="#FFFFFF" stroke-miterlimit="10" x1="541.5" y1="117" x2="541.5" y2="143"/>
<line fill="none" stroke="#FFFFFF" stroke-miterlimit="10" x1="551.5" y1="117" x2="551.5" y2="143"/>
<line fill="none" stroke="#FFFFFF" stroke-miterlimit="10" x1="560.5" y1="117" x2="560.5" y2="143"/>
<line fill="none" stroke="#FFFFFF" stroke-miterlimit="10" x1="569.5" y1="117" x2="569.5" y2="143"/>
<line fill="none" stroke="#FFFFFF" stroke-miterlimit="10" x1="459.5" y1="117" x2="459.5" y2="143"/>
<line fill="none" stroke="#FFFFFF" stroke-miterlimit="10" x1="469.5" y1="117" x2="469.5" y2="143"/>
<line fill="none" stroke="#FFFFFF" stroke-miterlimit="10" x1="478.5" y1="117" x2="478.5" y2="143"/>
<line fill="none" stroke="#FFFFFF" stroke-miterlimit="10" x1="488.5" y1="117" x2="488.5" y2="143"/>
<line fill="none" stroke="#FFFFFF" stroke-miterlimit="10" x1="497.5" y1="117" x2="497.5" y2="143"/>
<line fill="none" stroke="#FFFFFF" stroke-miterlimit="10" x1="506.5" y1="117" x2="506.5" y2="143"/>
<line fill="none" stroke="#FFFFFF" stroke-miterlimit="10" x1="395.5" y1="117" x2="395.5" y2="143"/>
<line fill="none" stroke="#FFFFFF" stroke-miterlimit="10" x1="405.5" y1="117" x2="405.5" y2="143"/>
<line fill="none" stroke="#FFFFFF" stroke-miterlimit="10" x1="414.5" y1="117" x2="414.5" y2="143"/>
<line fill="none" stroke="#FFFFFF" stroke-miterlimit="10" x1="424.5" y1="117" x2="424.5" y2="143"/>
<line fill="none" stroke="#FFFFFF" stroke-miterlimit="10" x1="433.5" y1="117" x2="433.5" y2="143"/>
<line fill="none" stroke="#FFFFFF" stroke-miterlimit="10" x1="442.5" y1="117" x2="442.5" y2="143"/>
<line fill="none" stroke="#FFFFFF" stroke-miterlimit="10" x1="331.5" y1="117" x2="331.5" y2="143"/>
<line fill="none" stroke="#FFFFFF" stroke-miterlimit="10" x1="341.5" y1="117" x2="341.5" y2="143"/>
<line fill="none" stroke="#FFFFFF" stroke-miterlimit="10" x1="350.5" y1="117" x2="350.5" y2="143"/>
<line fill="none" stroke="#FFFFFF" stroke-miterlimit="10" x1="360.5" y1="117" x2="360.5" y2="143"/>
<line fill="none" stroke="#FFFFFF" stroke-miterlimit="10" x1="369.5" y1="117" x2="369.5" y2="143"/>
<line fill="none" stroke="#FFFFFF" stroke-miterlimit="10" x1="378.5" y1="117" x2="378.5" y2="143"/>
<line fill="none" stroke="#FFFFFF" stroke-miterlimit="10" x1="268.5" y1="117" x2="268.5" y2="143"/>
<line fill="none" stroke="#FFFFFF" stroke-miterlimit="10" x1="278.5" y1="117" x2="278.5" y2="143"/>
<line fill="none" stroke="#FFFFFF" stroke-miterlimit="10" x1="287.5" y1="117" x2="287.5" y2="143"/>
<line fill="none" stroke="#FFFFFF" stroke-miterlimit="10" x1="297.5" y1="117" x2="297.5" y2="143"/>
<line fill="none" stroke="#FFFFFF" stroke-miterlimit="10" x1="306.5" y1="117" x2="306.5" y2="143"/>
<line fill="none" stroke="#FFFFFF" stroke-miterlimit="10" x1="315.5" y1="117" x2="315.5" y2="143"/>
<line fill="none" stroke="#FFFFFF" stroke-miterlimit="10" x1="205.5" y1="117" x2="205.5" y2="143"/>
<line fill="none" stroke="#FFFFFF" stroke-miterlimit="10" x1="215.5" y1="117" x2="215.5" y2="143"/>
<line fill="none" stroke="#FFFFFF" stroke-miterlimit="10" x1="224.5" y1="117" x2="224.5" y2="143"/>
<line fill="none" stroke="#FFFFFF" stroke-miterlimit="10" x1="234.5" y1="117" x2="234.5" y2="143"/>
<line fill="none" stroke="#FFFFFF" stroke-miterlimit="10" x1="243.5" y1="117" x2="243.5" y2="143"/>
<line fill="none" stroke="#FFFFFF" stroke-miterlimit="10" x1="252.5" y1="117" x2="252.5" y2="143"/>
<line fill="none" stroke="#FFFFFF" stroke-miterlimit="10" x1="142.5" y1="117" x2="142.5" y2="143"/>
<line fill="none" stroke="#FFFFFF" stroke-miterlimit="10" x1="152.5" y1="117" x2="152.5" y2="143"/>
<line fill="none" stroke="#FFFFFF" stroke-miterlimit="10" x1="161.5" y1="117" x2="161.5" y2="143"/>
<line fill="none" stroke="#FFFFFF" stroke-miterlimit="10" x1="171.5" y1="117" x2="171.5" y2="143"/>
<line fill="none" stroke="#FFFFFF" stroke-miterlimit="10" x1="180.5" y1="117" x2="180.5" y2="143"/>
<line fill="none" stroke="#FFFFFF" stroke-miterlimit="10" x1="189.5" y1="117" x2="189.5" y2="143"/>
<line fill="none" stroke="#FFFFFF" stroke-miterlimit="10" x1="79.5" y1="117" x2="79.5" y2="143"/>
<line fill="none" stroke="#FFFFFF" stroke-miterlimit="10" x1="89.5" y1="117" x2="89.5" y2="143"/>
<line fill="none" stroke="#FFFFFF" stroke-miterlimit="10" x1="98.5" y1="117" x2="98.5" y2="143"/>
<line fill="none" stroke="#FFFFFF" stroke-miterlimit="10" x1="108.5" y1="117" x2="108.5" y2="143"/>
<line fill="none" stroke="#FFFFFF" stroke-miterlimit="10" x1="117.5" y1="117" x2="117.5" y2="143"/>
<line fill="none" stroke="#FFFFFF" stroke-miterlimit="10" x1="126.5" y1="117" x2="126.5" y2="143"/>
<g>
	
		<image overflow="visible" opacity="0.27" enable-background="new    " width="160" height="93" xlink:href="BA15C25.png"  transform="matrix(1 0 0 1 19 0)">
	</image>
	<g>
		<path fill="#FFFFFF" d="M34.598,12h117.805c1.986,0,3.598,1.385,3.598,3.186v39.926c0,1.801-1.611,2.889-3.598,2.889H64.75
			l-9.268,10.433L48.486,58H34.598C32.61,58,31,56.912,31,55.111V15.186C31,13.385,32.61,12,34.598,12z"/>
		<path fill="none" stroke="#8B1F1D" stroke-width="4" stroke-miterlimit="10" d="M34.598,12h117.805
			c1.986,0,3.598,1.385,3.598,3.186v39.926c0,1.801-1.611,2.889-3.598,2.889H64.75l-9.268,10.433L48.486,58H34.598
			C32.61,58,31,56.912,31,55.111V15.186C31,13.385,32.61,12,34.598,12z"/>
	</g>
</g>
<g>
	
		<image overflow="visible" opacity="0.27" enable-background="new    " width="127" height="89" xlink:href="BA15C2B.png"  transform="matrix(1 0 0 1 503 2)">
	</image>
	<g>
		<path fill="#FFFFFF" d="M603.656,14h-85.312c-1.847,0-3.344,1.355-3.344,3.026v37.067c0,1.671,1.497,2.907,3.344,2.907h57.293
			l8.612,9.686L590.75,57h12.906c1.848,0,3.344-1.236,3.344-2.907V17.026C607,15.355,605.504,14,603.656,14z"/>
		<path fill="none" stroke="#016837" stroke-width="4" stroke-miterlimit="10" d="M603.656,14h-85.312
			c-1.847,0-3.344,1.355-3.344,3.026v37.067c0,1.671,1.497,2.907,3.344,2.907h57.293l8.612,9.686L590.75,57h12.906
			c1.848,0,3.344-1.236,3.344-2.907V17.026C607,15.355,605.504,14,603.656,14z"/>
	</g>
</g>
<g enable-background="new    ">
	<path fill="#8B1F1D" d="M54.874,39.591c0,1.48,0.029,2.757,0.116,3.86h-2.264l-0.145-2.293h-0.058
		c-0.639,1.132-2.148,2.612-4.644,2.612c-2.206,0-4.847-1.248-4.847-6.153v-8.213h2.554v7.749c0,2.67,0.842,4.499,3.134,4.499
		c1.712,0,2.902-1.19,3.367-2.351c0.145-0.348,0.232-0.812,0.232-1.306v-8.591h2.554V39.591z"/>
	<path fill="#8B1F1D" d="M59.113,33.207c0-1.48-0.029-2.641-0.116-3.802h2.264l0.146,2.322h0.058
		c0.697-1.306,2.322-2.612,4.644-2.612c1.945,0,4.963,1.161,4.963,5.979v8.358h-2.554v-8.097c0-2.264-0.842-4.15-3.25-4.15
		c-1.654,0-2.96,1.19-3.425,2.612c-0.116,0.319-0.174,0.754-0.174,1.19v8.445h-2.554V33.207z"/>
	<path fill="#8B1F1D" d="M74.875,40.868c0.783,0.464,2.119,0.987,3.396,0.987c1.828,0,2.699-0.9,2.699-2.09
		c0-1.219-0.726-1.857-2.583-2.554c-2.554-0.929-3.744-2.293-3.744-3.976c0-2.264,1.857-4.121,4.847-4.121
		c1.422,0,2.67,0.377,3.425,0.871l-0.609,1.857C81.753,31.494,80.737,31,79.431,31c-1.509,0-2.322,0.871-2.322,1.916
		c0,1.161,0.813,1.684,2.641,2.409c2.409,0.899,3.686,2.118,3.686,4.208c0,2.496-1.945,4.237-5.224,4.237
		c-1.538,0-2.96-0.406-3.947-0.987L74.875,40.868z"/>
	<path fill="#8B1F1D" d="M89.562,25.458c0,0.871-0.609,1.567-1.625,1.567c-0.929,0-1.538-0.696-1.538-1.567s0.639-1.596,1.596-1.596
		C88.923,23.861,89.562,24.558,89.562,25.458z M86.718,43.451V29.404h2.554v14.047H86.718z"/>
	<path fill="#8B1F1D" d="M103.522,42.958c-0.667,0.319-2.147,0.812-4.034,0.812c-4.237,0-6.994-2.873-6.994-7.168
		c0-4.324,2.96-7.488,7.545-7.488c1.509,0,2.844,0.377,3.541,0.754L103,31.813c-0.609-0.319-1.567-0.668-2.96-0.668
		c-3.221,0-4.962,2.409-4.962,5.312c0,3.25,2.089,5.253,4.875,5.253c1.451,0,2.409-0.349,3.134-0.667L103.522,42.958z"/>
	<path fill="#8B1F1D" d="M106.514,22.845h2.554v8.794h0.058c0.406-0.726,1.045-1.393,1.829-1.829
		c0.754-0.435,1.654-0.696,2.612-0.696c1.887,0,4.905,1.161,4.905,5.979v8.358h-2.554v-8.068c0-2.264-0.842-4.15-3.25-4.15
		c-1.654,0-2.931,1.161-3.425,2.525c-0.145,0.377-0.174,0.754-0.174,1.219v8.475h-2.554V22.845z"/>
	<path fill="#8B1F1D" d="M124.045,36.892c0.058,3.454,2.235,4.876,4.818,4.876c1.829,0,2.96-0.319,3.889-0.726l0.464,1.828
		c-0.9,0.406-2.467,0.9-4.702,0.9c-4.324,0-6.907-2.873-6.907-7.11s2.496-7.546,6.588-7.546c4.615,0,5.804,4.005,5.804,6.588
		c0,0.522-0.029,0.9-0.087,1.19H124.045z M131.533,35.064c0.029-1.596-0.667-4.122-3.541-4.122c-2.612,0-3.715,2.351-3.918,4.122
		H131.533z"/>
	<path fill="#8B1F1D" d="M137.166,33.787c0-1.654-0.029-3.076-0.116-4.382h2.235l0.116,2.786h0.087
		c0.639-1.886,2.206-3.076,3.918-3.076c0.261,0,0.464,0.029,0.697,0.058v2.409c-0.261-0.058-0.522-0.058-0.871-0.058
		c-1.799,0-3.076,1.335-3.424,3.25c-0.058,0.348-0.087,0.784-0.087,1.19v7.488h-2.554V33.787z"/>
</g>
<g enable-background="new    ">
	<path fill="#016837" d="M525.815,42.625c0.803,0.476,2.171,1.011,3.479,1.011c1.873,0,2.766-0.922,2.766-2.141
		c0-1.249-0.744-1.903-2.647-2.617c-2.616-0.952-3.836-2.349-3.836-4.074c0-2.32,1.903-4.223,4.967-4.223
		c1.457,0,2.735,0.387,3.509,0.893l-0.624,1.903c-0.565-0.357-1.606-0.863-2.944-0.863c-1.547,0-2.379,0.892-2.379,1.963
		c0,1.189,0.832,1.725,2.706,2.468c2.468,0.922,3.776,2.171,3.776,4.312c0,2.558-1.992,4.342-5.353,4.342
		c-1.576,0-3.033-0.417-4.045-1.011L525.815,42.625z"/>
	<path fill="#016837" d="M540.863,26.834c0,0.892-0.624,1.606-1.665,1.606c-0.951,0-1.576-0.714-1.576-1.606
		s0.654-1.636,1.636-1.636C540.21,25.198,540.863,25.912,540.863,26.834z M537.949,45.272V30.878h2.617v14.394H537.949z"/>
	<path fill="#016837" d="M555.169,44.767c-0.684,0.327-2.2,0.833-4.134,0.833c-4.342,0-7.167-2.944-7.167-7.346
		c0-4.431,3.033-7.673,7.732-7.673c1.547,0,2.914,0.387,3.628,0.773l-0.595,1.993c-0.624-0.327-1.605-0.684-3.033-0.684
		c-3.301,0-5.085,2.468-5.085,5.442c0,3.331,2.141,5.383,4.996,5.383c1.486,0,2.468-0.357,3.212-0.684L555.169,44.767z"/>
	<path fill="#016837" d="M558.233,24.158h2.617v9.011h0.06c0.416-0.744,1.07-1.427,1.873-1.874c0.773-0.446,1.695-0.714,2.677-0.714
		c1.934,0,5.026,1.19,5.026,6.126v8.565h-2.617v-8.268c0-2.32-0.862-4.253-3.331-4.253c-1.695,0-3.004,1.19-3.509,2.587
		c-0.149,0.387-0.179,0.773-0.179,1.249v8.684h-2.617V24.158z"/>
	<path fill="#016837" d="M576.197,38.551c0.06,3.539,2.29,4.996,4.938,4.996c1.873,0,3.033-0.327,3.984-0.743l0.476,1.874
		c-0.922,0.417-2.527,0.922-4.817,0.922c-4.431,0-7.078-2.944-7.078-7.286s2.558-7.732,6.751-7.732c4.729,0,5.948,4.104,5.948,6.751
		c0,0.535-0.03,0.922-0.09,1.219H576.197z M583.87,36.678c0.03-1.636-0.684-4.223-3.628-4.223c-2.677,0-3.807,2.409-4.015,4.223
		H583.87z"/>
	<path fill="#016837" d="M589.641,35.369c0-1.695-0.029-3.152-0.119-4.491h2.29l0.119,2.855h0.089
		c0.654-1.933,2.261-3.152,4.016-3.152c0.268,0,0.476,0.03,0.713,0.06v2.468c-0.268-0.059-0.535-0.059-0.892-0.059
		c-1.844,0-3.152,1.368-3.51,3.331c-0.06,0.357-0.089,0.803-0.089,1.219v7.673h-2.617V35.369z"/>
</g>
</svg>
